<mxfile host="app.diagrams.net" agent="Mozilla/5.0 (Macintosh; Intel Mac OS X 10_15_7) AppleWebKit/605.1.15 (KHTML, like Gecko) Version/17.1.2 Safari/605.1.15" version="24.8.4">
  <diagram name="Страница — 1" id="mTmh-SNAzJmjGqUerd75">
    <mxGraphModel dx="1208" dy="792" grid="1" gridSize="10" guides="1" tooltips="1" connect="1" arrows="1" fold="1" page="1" pageScale="1" pageWidth="827" pageHeight="1169" math="0" shadow="0">
      <root>
        <mxCell id="0" />
        <mxCell id="1" parent="0" />
        <mxCell id="JG2fhLd84qHP6whJKnzK-5" value="Minikube Cluster" style="swimlane;whiteSpace=wrap;html=1;" vertex="1" parent="1">
          <mxGeometry x="414" y="320" width="846" height="170" as="geometry" />
        </mxCell>
        <mxCell id="JG2fhLd84qHP6whJKnzK-6" value="flask-hello-world-deployment" style="swimlane;fontStyle=0;childLayout=stackLayout;horizontal=1;startSize=30;horizontalStack=0;resizeParent=1;resizeParentMax=0;resizeLast=0;collapsible=1;marginBottom=0;whiteSpace=wrap;html=1;" vertex="1" parent="JG2fhLd84qHP6whJKnzK-5">
          <mxGeometry x="40" y="60" width="240" height="90" as="geometry" />
        </mxCell>
        <mxCell id="JG2fhLd84qHP6whJKnzK-7" value="&lt;code&gt;hello-world-container&lt;/code&gt;" style="text;strokeColor=none;fillColor=none;align=left;verticalAlign=middle;spacingLeft=4;spacingRight=4;overflow=hidden;points=[[0,0.5],[1,0.5]];portConstraint=eastwest;rotatable=0;whiteSpace=wrap;html=1;" vertex="1" parent="JG2fhLd84qHP6whJKnzK-6">
          <mxGeometry y="30" width="240" height="30" as="geometry" />
        </mxCell>
        <mxCell id="JG2fhLd84qHP6whJKnzK-8" value="&lt;code&gt;hello-world-container&lt;/code&gt;" style="text;strokeColor=none;fillColor=none;align=left;verticalAlign=middle;spacingLeft=4;spacingRight=4;overflow=hidden;points=[[0,0.5],[1,0.5]];portConstraint=eastwest;rotatable=0;whiteSpace=wrap;html=1;" vertex="1" parent="JG2fhLd84qHP6whJKnzK-6">
          <mxGeometry y="60" width="240" height="30" as="geometry" />
        </mxCell>
        <mxCell id="JG2fhLd84qHP6whJKnzK-13" style="edgeStyle=orthogonalEdgeStyle;rounded=0;orthogonalLoop=1;jettySize=auto;html=1;endArrow=oval;endFill=1;startArrow=oval;startFill=1;" edge="1" parent="JG2fhLd84qHP6whJKnzK-5" source="JG2fhLd84qHP6whJKnzK-10">
          <mxGeometry relative="1" as="geometry">
            <mxPoint x="280" y="105" as="targetPoint" />
            <Array as="points">
              <mxPoint x="370" y="105" />
              <mxPoint x="370" y="105" />
            </Array>
          </mxGeometry>
        </mxCell>
        <mxCell id="JG2fhLd84qHP6whJKnzK-14" style="edgeStyle=orthogonalEdgeStyle;rounded=0;orthogonalLoop=1;jettySize=auto;html=1;entryX=1;entryY=0.5;entryDx=0;entryDy=0;startArrow=oval;startFill=1;endArrow=oval;endFill=1;" edge="1" parent="JG2fhLd84qHP6whJKnzK-5" target="JG2fhLd84qHP6whJKnzK-8">
          <mxGeometry relative="1" as="geometry">
            <mxPoint x="546" y="135" as="sourcePoint" />
            <Array as="points">
              <mxPoint x="546" y="135" />
            </Array>
          </mxGeometry>
        </mxCell>
        <mxCell id="JG2fhLd84qHP6whJKnzK-18" style="edgeStyle=orthogonalEdgeStyle;rounded=0;orthogonalLoop=1;jettySize=auto;html=1;exitX=1;exitY=0.5;exitDx=0;exitDy=0;endArrow=oval;endFill=1;startArrow=oval;startFill=1;" edge="1" parent="JG2fhLd84qHP6whJKnzK-5" source="JG2fhLd84qHP6whJKnzK-10">
          <mxGeometry relative="1" as="geometry">
            <mxPoint x="1036" y="105.28571428571433" as="targetPoint" />
          </mxGeometry>
        </mxCell>
        <mxCell id="JG2fhLd84qHP6whJKnzK-10" value="flask-hello-world-service" style="swimlane;fontStyle=0;childLayout=stackLayout;horizontal=1;startSize=30;horizontalStack=0;resizeParent=1;resizeParentMax=0;resizeLast=0;collapsible=1;marginBottom=0;whiteSpace=wrap;html=1;" vertex="1" parent="JG2fhLd84qHP6whJKnzK-5">
          <mxGeometry x="546" y="60" width="240" height="90" as="geometry" />
        </mxCell>
        <mxCell id="JG2fhLd84qHP6whJKnzK-15" value="30077 &amp;nbsp; &amp;nbsp; &amp;nbsp; &amp;nbsp; &amp;nbsp; &amp;nbsp; &amp;nbsp; &amp;nbsp; &amp;nbsp; &amp;nbsp; &amp;nbsp; &amp;nbsp; &amp;nbsp; &amp;nbsp; &amp;nbsp; &amp;nbsp; &amp;nbsp; &amp;nbsp; &amp;nbsp; &amp;nbsp; &amp;nbsp; &amp;nbsp; &amp;nbsp; &amp;nbsp; &amp;nbsp; &amp;nbsp;32777" style="text;html=1;align=left;verticalAlign=middle;whiteSpace=wrap;rounded=0;" vertex="1" parent="JG2fhLd84qHP6whJKnzK-5">
          <mxGeometry x="296" y="80" width="244" height="30" as="geometry" />
        </mxCell>
        <mxCell id="JG2fhLd84qHP6whJKnzK-16" value="30077 &amp;nbsp; &amp;nbsp; &amp;nbsp; &amp;nbsp; &amp;nbsp; &amp;nbsp; &amp;nbsp; &amp;nbsp; &amp;nbsp; &amp;nbsp; &amp;nbsp; &amp;nbsp; &amp;nbsp; &amp;nbsp; &amp;nbsp; &amp;nbsp; &amp;nbsp; &amp;nbsp; &amp;nbsp; &amp;nbsp; &amp;nbsp; &amp;nbsp; &amp;nbsp; &amp;nbsp; &amp;nbsp; &amp;nbsp;32777" style="text;html=1;align=left;verticalAlign=middle;whiteSpace=wrap;rounded=0;" vertex="1" parent="JG2fhLd84qHP6whJKnzK-5">
          <mxGeometry x="296" y="110" width="244" height="30" as="geometry" />
        </mxCell>
        <mxCell id="JG2fhLd84qHP6whJKnzK-17" value="Пользователь" style="shape=umlActor;verticalLabelPosition=bottom;verticalAlign=top;html=1;outlineConnect=0;" vertex="1" parent="1">
          <mxGeometry x="1460" y="390" width="30" height="60" as="geometry" />
        </mxCell>
        <mxCell id="JG2fhLd84qHP6whJKnzK-19" value="&lt;div&gt;&lt;span style=&quot;font-size: 12px;&quot;&gt;32777 &amp;nbsp; &amp;nbsp; &amp;nbsp; &amp;nbsp; &amp;nbsp; &amp;nbsp; &amp;nbsp; &amp;nbsp; &amp;nbsp; &amp;nbsp; &amp;nbsp; &amp;nbsp; &amp;nbsp; &amp;nbsp;&amp;nbsp;&lt;/span&gt;&lt;span style=&quot;font-size: 12px;&quot;&gt;&amp;nbsp; &amp;nbsp; &amp;nbsp; &amp;nbsp;&lt;/span&gt;&lt;span style=&quot;font-size: 12px;&quot;&gt;localhost:8080&lt;/span&gt;&lt;/div&gt;" style="text;html=1;align=left;verticalAlign=middle;whiteSpace=wrap;rounded=0;" vertex="1" parent="1">
          <mxGeometry x="1210" y="400" width="234" height="30" as="geometry" />
        </mxCell>
      </root>
    </mxGraphModel>
  </diagram>
</mxfile>
